<svg width="256" height="256" viewBox="0 0 67 67" xmlns="http://www.w3.org/2000/svg"><path fill="#003399" paint-order="stroke fill markers" d="M0 0h67.733v67.733H0z"/><path d="M9.905 16.05q-.018 0-.04.012-.017 0-.038.012-.057.03-.084.082-.027.052-.02.113l.054.721q.032.359.07.815l.083.99.076.994q.035.467.07.85.04.374.095.692.061.314.135.55.073.234.125.362l.04.106q.012.04.042.078.012.021.042.06.03.038.11.05.04.005.082 0 .04-.012.06-.024l.043-.023.02-.03q.035-.037.042-.058l.027-.052q.013-.025.02-.047.009-.033.022-.059.02-.047.026-.087l.022-.076q.006-.04-.002-.072-.001-.036-.02-.072-.024-.042-.057-.07-.034-.027-.074-.033-.04-.006-.071.003-.033.008-.06.024l-.09-.264q-.044-.131-.077-.342-.057-.29-.092-.656-.032-.376-.074-.84-.04-.473-.08-1-.041-.528-.072-.988-.039-.455-.074-.821-.028-.37-.058-.71-.005-.026-.012-.04-.005-.025-.016-.046-.031-.056-.083-.083-.051-.027-.112-.021zm2.322-1.453q-.063.034-.13.08-.07.039-.133.091-.067.046-.126.106-.052.056-.096.126-.041.059-.078.125l-.06.124q-.02.048-.022.095-.002.047.025.096.015.028.038.053.025.013.055.034.044.012.09.014.054-.002.097-.025.028-.015.052-.038.025-.022.034-.055.034-.055.061-.107.023-.058.05-.091.024-.04.056-.067.035-.037.073-.068.046-.034.095-.06.053-.039.109-.07.056-.03.103-.046.053-.02.103-.03.057-.012.129-.015.072-.003.152.009.075.004.156.034.083.018.113.039.025.013.037.034l.054.1.067.155q.042.078.059.142.02.071.02.154.006.079.007.18v.201q-.004.094-.021.213-.014.109-.049.247-.038.13-.09.27-.046.134-.103.266-.049.128-.082.201l-.03.062q-.018.019-.028.034l-.006.022q-.007.003-.014.025-.007.004-.01.015l-.006.022q.004.007 0 .018-.007.004-.006.022.004.007.008.032.005.025-.002.029l.023.042.02.035.033.028.04.024.026.013.033.01q.018-.001.028.002l.015-.008q.064.002.071-.002.01-.015.025-.023l.014-.007.021-.012.042-.023.064-.035q.067-.027.156-.067.096-.043.206-.076.117-.036.25-.063.128-.033.228-.051.104-.011.176-.014.072-.003.122.006.051.01.088.026.043.013.073.033.04.024.078.059.037.034.063.066.03.038.046.066.015.029.028.086.016.046.03.222.02.172.019.219-.012.08-.024.224-.006.14-.023.26t-.043.206q-.026.088-.059.16-.04.078-.088.159-.044.07-.085.129l-.086.111q-.03.044-.062.07-.028.034-.052.057-.017.018-.031.026l-.022.012-.014.007-.02.012q-.019 0-.033.008-.025.005-.046.016-.021.012-.046.017l-.015.007-.014.008q-.063.035-.093.115-.026.07.002.137l.008.014.003.007q.039.07.108.097.07.026.148.001.021-.011.04-.012l.034-.02q.022-.01.04-.011.02-.012.053-.02l.05-.027q.035-.02.066-.046l.056-.049q.038-.03.08-.071.038-.048.083-.1.052-.056.103-.13.051-.074.106-.159.057-.095.104-.194.043-.106.082-.22.035-.12.055-.268.017-.137.03-.281.015-.156.016-.239.013-.126-.007-.28-.024-.161-.05-.275-.025-.097-.067-.174-.043-.078-.08-.13-.05-.056-.105-.108-.06-.06-.134-.11-.07-.045-.15-.074-.08-.03-.171-.044-.09-.015-.198-.011-.101 0-.22.019-.128.015-.275.05-.139.03-.277.078-.025.004-.047.016l-.042.023.037-.084q.016-.037.029-.08.052-.157.09-.306.044-.153.068-.294.017-.137.02-.249.006-.123.006-.223 0-.101-.004-.209-.004-.108-.034-.23-.036-.117-.087-.208-.043-.096-.081-.166-.028-.068-.081-.149-.054-.08-.153-.145-.1-.065-.212-.086-.11-.032-.229-.05-.108-.013-.212-.002-.1 0-.201.018-.09.021-.164.053l-.149.063zm3.1-1.86q-.067.046-.086.13-.022.076.02.154l.004.007.004.007q.038.052.07.109.033.045.072.116.038.07.085.173.043.096.08.195.042.096.086.21.04.106.103.237l.132.276q.073.134.138.236.076.105.147.185.068.073.146.132.073.05.18.112.11.05.237.081.131.039.268.055.141.006.289.007.147.002.299.011.147.002.263.012.115.01.192.033.072.015.127.031.048.02.066.037.026.014.06.041.026.032.06.095.042.06.07.127.031.075.048.139.024.06.027.15.007.079-.004.194-.01.116-.033.257-.035.138-.08.291-.044.153-.087.259-.043.106-.084.165-.038.048-.083.1l-.097.09-.106.076q-.06.042-.123.076l-.085.047q-.039.012-.05.009-.01-.003-.04-.006l-.057-.005q-.033-.01-.07-.026-.04-.006-.082 0-.036 0-.072.02-.042.023-.07.056-.027.034-.033.073-.016.037-.011.08.005.043.024.078.023.043.057.07.03.02.073.034l.076.022.09.015q.052.009.127.013.08-.006.165-.035.092-.032.17-.074.077-.043.151-.092l.133-.11q.07-.056.136-.12.055-.067.124-.16.068-.092.128-.234.056-.132.104-.296.051-.174.081-.337.034-.156.047-.3.013-.145.008-.27-.012-.123-.04-.226-.034-.11-.073-.2l-.092-.169q-.047-.084-.114-.157-.064-.066-.145-.114-.074-.051-.154-.08-.08-.03-.181-.048-.106-.025-.24-.034-.126-.014-.284-.019-.152-.008-.3-.01l-.263-.012q-.12-.017-.203-.036-.083-.019-.15-.056-.065-.037-.124-.078-.06-.04-.097-.076-.03-.038-.083-.119-.058-.088-.127-.215l-.117-.247q-.059-.124-.102-.22l-.08-.213-.097-.212q-.047-.103-.093-.188-.04-.088-.082-.148-.045-.067-.076-.123-.046-.067-.13-.085-.076-.023-.153.02l-.007.004-.007.004zm1.822-.473q-.099.072-.2.155-.098.072-.206.159l-.224.195q-.104.094-.195.18-.097.09-.177.161-.08.071-.157.15-.073.067-.142.142l-.146.135q-.045.052-.06.124-.009.069.026.133l.015.028q.015.01.026.013.045.049.118.064.068.009.132-.026l.028-.016q.01-.014.024-.022l-.007.004q.07-.075.136-.138.069-.075.142-.142l.153-.14q.08-.07.17-.157.098-.09.203-.183.104-.094.206-.177.101-.083.2-.155.094-.079.192-.15.063-.054.078-.126.015-.073-.023-.143l-.008-.014-.008-.015q-.045-.066-.125-.078-.073-.015-.143.024l-.014.007-.014.008zM20.1 10.42q-.078.024-.163.07-.078.043-.14.114-.062.07-.106.158-.047.081-.083.183l-.078.226q-.042.124-.07.259-.027.134-.044.271-.013.127-.023.26-.005.14-.014.292-.002.148.003.274.001.136.006.262.011.122.059.243.044.113.123.208.075.087.16.16.075.069.178.14.104.072.232.121.127.05.272.08.153.027.315.04.09-.004.187-.011.093-.014.19-.022-.001.065.004.126.002.054-.003.112.006.162.004.31v.284q.012.14.02.273l.024.243q0 .018.005.043l.02.036q.034.063.09.097.058.023.126.014l.036-.002.042-.023q.057-.03.09-.086.03-.062.025-.123-.012-.122-.03-.24-.012-.122-.017-.248-.004-.126-.002-.273l.002-.314q.002-.065-.008-.133-.003-.072.002-.147.15-.027.296-.062.154-.038.257-.067.128-.033.203-.047.083-.017.144-.023.064.001.09.015.029.002.062.03.034.028.08.112.046.085.068.174.028.085.028.186.003.09-.014.21-.006.122-.041.242-.029.116-.066.183-.037.066-.107.122-.074.05-.172.104-.102.065-.208.123l-.19.104-.17.074-.157.067-.014.008-.007.004q-.07.038-.1.119-.026.07.01.15l-.008.004.004.008.008.014q.038.07.118.1.077.022.151-.01.082-.035.167-.063.089-.04.187-.093.103-.047.209-.105.11-.069.215-.127.109-.069.228-.152.12-.084.204-.23.085-.148.119-.304.034-.156.05-.293.013-.145.011-.281-.001-.137-.038-.273-.03-.139-.1-.266-.062-.13-.17-.228-.112-.103-.235-.128-.128-.031-.228-.031-.104.011-.204.03-.1.017-.236.054-.096.026-.218.055-.12.03-.239.049-.008-.133-.013-.26-.005-.125-.016-.247-.006-.144-.022-.29-.009-.151-.021-.291l-.038-.255q-.023-.125-.033-.21l-.039-.172q-.017-.082-.064-.185-.047-.102-.105-.208-.062-.113-.123-.208-.058-.106-.118-.183-.057-.088-.121-.154-.057-.07-.141-.124-.082-.066-.194-.087-.102-.018-.195-.004-.093.015-.178.043zm.13.405q.046-.016.093-.014.05-.009.068-.01l.04.024q.026.014.06.06.041.04.087.108.046.066.103.154.057.088.115.194.054.099.086.173.031.075.044.132l.026.132q.01.086.03.204.021.107.037.236.015.13.025.28.012.14.02.273.013.14.021.273.005.125.003.273-.086.01-.18.025-.085.01-.16.006-.141-.006-.254-.027-.105-.025-.19-.062-.09-.032-.16-.076-.074-.052-.134-.11-.067-.056-.108-.098-.038-.052-.054-.098-.02-.054-.03-.14l-.008-.215q0-.12.005-.26l.008-.27q.01-.133.023-.242.018-.12.039-.232.02-.112.053-.221l.068-.193q.033-.092.064-.136.027-.051.05-.074.018-.018.046-.034.025-.022.064-.035zm24.238 39.788q-.018 0-.04.012-.017 0-.038.012-.057.03-.084.082-.027.052-.02.113l.055.721.069.815.083.99.076.994q.035.467.07.85.04.374.095.692.061.314.135.55.073.234.125.362.024.06.04.106.012.04.042.078.012.021.042.06.03.038.11.05.04.005.082 0 .04-.012.06-.024l.043-.023.02-.03q.035-.037.042-.058l.027-.052q.013-.025.02-.047.009-.033.022-.059.02-.047.026-.087l.022-.076q.006-.04-.002-.072-.001-.036-.02-.072-.024-.042-.057-.07-.034-.027-.074-.033-.04-.005-.071.003-.032.008-.06.024l-.09-.263q-.044-.132-.077-.343-.057-.29-.092-.655-.032-.377-.074-.84-.04-.474-.08-1.001-.041-.528-.072-.988-.039-.455-.074-.821-.028-.37-.058-.71-.005-.026-.012-.04-.005-.025-.016-.046-.031-.056-.083-.083-.051-.027-.112-.021zm2.322-1.453q-.063.034-.13.08-.07.039-.133.091-.067.046-.126.106-.052.056-.096.126-.041.059-.078.125l-.06.124q-.02.048-.022.095-.002.047.025.096.015.028.038.053.025.013.055.034.044.012.09.014.054-.002.097-.025.028-.015.052-.038.025-.022.034-.055.034-.055.061-.107.023-.058.05-.091.025-.04.056-.067.035-.037.073-.068.046-.034.095-.06.053-.039.11-.07.056-.03.102-.046.053-.02.103-.03.057-.012.129-.015.072-.003.152.009.075.004.156.034.083.018.113.039.025.013.037.034l.054.1.067.155q.042.078.059.142.02.071.02.154.006.079.007.18v.201q-.004.094-.021.213-.014.109-.049.247-.038.13-.09.27-.046.134-.103.266-.049.128-.082.201l-.03.062q-.018.019-.028.034l-.006.022q-.007.004-.014.025-.007.004-.01.015l-.006.022q.004.007 0 .018-.007.004-.006.022.004.007.008.032.005.025-.002.029l.023.042.02.035.033.028.04.024.026.013.033.01q.018-.001.028.002l.015-.008q.064.002.071-.002.01-.015.025-.023l.014-.007.021-.012.042-.023.064-.035q.067-.027.156-.067.096-.043.206-.076.117-.036.25-.063.128-.033.228-.051.104-.011.176-.014.072-.003.122.006.051.01.088.026.043.013.073.033.04.024.078.059.037.034.063.066.03.038.046.066.015.029.028.086.016.046.03.222.02.172.019.219-.012.08-.024.224-.006.14-.023.26t-.043.206q-.026.088-.059.161-.04.077-.088.158-.044.07-.085.13l-.086.11q-.03.045-.062.07-.028.034-.052.057-.017.018-.031.026l-.022.012-.014.007-.02.012q-.019 0-.033.008-.025.005-.046.016-.021.012-.046.017l-.014.007-.015.008q-.063.035-.093.115-.026.07.002.137l.008.014.003.007q.039.07.108.097.07.026.148.001.021-.011.04-.012l.034-.019q.022-.012.04-.012.02-.012.053-.02l.05-.027q.035-.02.066-.046l.056-.049q.038-.03.08-.071.038-.048.083-.1.052-.056.103-.13.051-.074.106-.159.057-.095.104-.194.043-.106.082-.22.035-.12.055-.268.017-.137.03-.281.015-.156.016-.239.013-.126-.007-.28-.024-.161-.05-.275-.025-.097-.067-.174-.043-.078-.08-.13-.05-.056-.105-.108-.06-.06-.134-.11-.07-.045-.15-.074-.08-.03-.171-.044-.09-.015-.198-.011-.101 0-.22.019-.128.015-.275.05-.139.03-.277.078-.025.004-.047.016l-.042.023.037-.084q.016-.037.029-.08.052-.157.09-.306.044-.153.068-.294.017-.137.02-.249.006-.123.006-.223 0-.101-.004-.209-.004-.108-.034-.23-.036-.117-.087-.208-.043-.096-.081-.166-.028-.068-.081-.149-.054-.08-.153-.145-.1-.065-.212-.086-.11-.032-.229-.05-.108-.013-.212-.002-.1 0-.201.018-.09.021-.164.053l-.149.063zm3.1-1.86q-.067.046-.086.13-.022.076.02.154l.004.007.004.007q.038.052.07.109.033.045.072.116.038.07.085.173.043.096.08.195.043.096.086.21.04.106.103.237l.132.276q.073.134.138.236.076.105.147.185.068.073.146.132.073.051.18.112.11.05.237.081.131.039.268.055.141.006.289.007.147.002.299.011.147.002.263.012.116.01.192.033.072.015.127.031.048.02.066.037.026.014.06.041.026.032.06.095.042.06.07.127.031.075.048.139.024.06.027.15.007.079-.004.194-.01.116-.033.257-.035.138-.08.291-.044.153-.087.259-.043.106-.084.165-.038.048-.083.1l-.097.09-.106.076q-.06.042-.123.076l-.085.047q-.039.012-.05.009-.01-.003-.04-.006l-.057-.005q-.033-.01-.07-.026-.04-.006-.082 0-.036 0-.072.02-.042.023-.07.056-.027.034-.033.073-.016.037-.011.08.005.043.024.078.023.043.057.07.03.02.073.034l.076.022.09.015q.052.009.127.013.08-.006.165-.035.092-.032.17-.074.077-.043.151-.092l.133-.11q.07-.056.136-.12.055-.067.124-.16.068-.092.128-.234.056-.132.104-.295.051-.175.081-.338.034-.156.047-.3.013-.145.008-.27-.012-.123-.04-.226-.034-.11-.073-.2l-.092-.168q-.047-.085-.114-.158-.064-.066-.145-.114-.074-.051-.154-.08-.08-.03-.181-.048-.106-.025-.24-.034-.126-.014-.284-.019-.152-.008-.3-.01l-.263-.012q-.12-.017-.203-.036-.083-.019-.15-.056-.065-.037-.124-.078-.06-.04-.097-.076-.03-.038-.083-.119-.058-.088-.127-.215l-.117-.247q-.059-.124-.102-.22l-.08-.213-.097-.212q-.047-.103-.093-.188-.04-.088-.081-.148-.046-.067-.077-.123-.046-.067-.13-.085-.075-.023-.153.02l-.007.004-.007.004zm1.822-.473q-.098.072-.2.155-.098.072-.206.159l-.224.195q-.104.094-.195.18-.097.09-.177.161-.08.071-.157.15-.073.067-.142.142l-.146.135q-.045.052-.06.124-.009.069.026.133l.015.028q.015.01.026.013.045.049.118.064.068.009.132-.026l.028-.016q.01-.014.024-.022l-.007.004q.07-.075.136-.138.069-.075.142-.142l.153-.14q.08-.07.17-.156l.203-.184q.104-.094.206-.177.101-.083.2-.155.094-.079.192-.15.063-.054.078-.126.015-.073-.023-.143l-.008-.014-.008-.014q-.045-.067-.125-.079-.073-.015-.143.024l-.014.007-.014.008zm2.952-1.843q-.078.024-.163.07-.078.043-.14.114-.062.07-.106.158-.047.081-.083.183l-.078.226q-.042.124-.07.259-.027.134-.044.271-.013.127-.023.26-.005.14-.014.292-.002.148.003.274.001.136.006.262.011.122.059.243.044.113.123.208.075.087.16.16.075.069.178.14.104.072.232.121.127.05.272.08.153.027.315.04.09-.004.187-.011.093-.014.19-.021-.001.064.004.125.002.054-.003.112.006.162.004.31v.284q.012.14.02.273l.024.243q0 .018.005.043l.02.036q.034.063.09.097.058.023.126.014l.036-.002.042-.023q.057-.03.09-.086.03-.062.025-.123-.012-.122-.03-.24-.012-.122-.017-.248-.004-.126-.002-.273l.002-.314q.002-.065-.008-.133-.003-.071.002-.147.15-.027.296-.061.154-.039.257-.067.128-.034.203-.048.083-.017.144-.023.064.001.09.015.029.002.062.03.034.028.08.112.046.085.068.174.028.086.028.186.003.09-.014.21-.006.122-.041.242-.029.116-.066.183-.037.066-.107.122-.074.05-.172.104-.102.065-.208.123l-.19.104-.17.074-.157.067-.014.008-.007.004q-.07.038-.1.119-.026.07.01.15l-.008.004.004.008.008.014q.038.07.118.1.077.022.151-.01.082-.035.167-.063.089-.04.188-.093.102-.047.208-.105.11-.069.215-.127.109-.069.228-.152.12-.084.204-.23.085-.148.119-.304.034-.156.05-.293.013-.145.011-.281-.001-.137-.038-.273-.03-.139-.1-.266-.062-.13-.17-.228-.112-.103-.235-.128-.128-.031-.228-.031-.104.011-.204.03-.1.017-.236.055-.096.025-.218.054-.12.03-.239.049-.008-.133-.013-.259-.005-.126-.016-.248-.006-.144-.022-.29-.009-.151-.021-.291l-.038-.254q-.023-.126-.033-.212l-.039-.171q-.017-.082-.064-.185-.047-.102-.105-.208-.062-.113-.123-.208-.058-.106-.118-.183-.057-.088-.121-.154-.057-.07-.141-.124-.082-.066-.194-.087-.102-.018-.195-.004-.093.015-.178.043zm.13.405q.046-.016.093-.014.05-.009.068-.01l.04.024q.026.014.06.06.041.04.087.108.046.066.103.154.057.088.115.194.054.099.086.173.031.075.044.132l.026.132q.01.086.03.204.021.107.037.236.015.13.025.28.012.14.02.273.013.14.021.273.005.126.003.273-.086.01-.18.025-.085.01-.16.006-.141-.006-.254-.027-.105-.025-.19-.062-.09-.032-.16-.076-.074-.052-.134-.11-.067-.056-.108-.098-.038-.052-.054-.098-.02-.054-.03-.14l-.008-.215q0-.12.005-.26l.008-.27q.01-.133.023-.242.018-.12.039-.232.02-.112.053-.221l.068-.193q.033-.092.064-.136.027-.051.05-.074.018-.018.046-.034.025-.022.064-.035z" paint-order="markers stroke fill" fill="#ffffff" fill-opacity="1"/></svg>